<svg width="596" height="79" xmlns="http://www.w3.org/2000/svg" viewBox="0 0 596 79" style="user-select: auto;"><g fill="none" fill-rule="evenodd" style="user-select: auto;"><path d="M575 36a10.4 10.4 0 1020.8 0 10.4 10.4 0 00-20.8 0z" fill="#FF8002" style="user-select: auto;"></path><path fill="#FFF" d="M553.9 77.5h16.6V26.7h-16.6zM509.5 49c.8-7 4.4-11 9.9-11 5.4 0 8.7 4 9.5 11h-19.4zm35.5 3c0-16.6-9.5-26.3-25.6-26.3-16.5 0-26 9.7-26 26.3 0 16.7 9.5 26.5 26 26.5 14.1 0 23.7-7.2 25.6-19.4h-16c-1.1 4.3-4.7 7-9.6 7-6 0-9.5-4.6-10-12.3H545V52zM473.6 50.8l17.6-24.1h-19l-16.8 24v.8l18.5 26h19.8zM455.4.3h-16.6v77.2h16.6zM410.6 77.5h16.6V26.7h-16.6z" style="user-select: auto;"></path><path d="M401.1 65.3c-6.6 0-10.5-4.9-10.5-13.3 0-8.3 3.9-13.3 10.5-13.3 4.8 0 8.2 3.1 9.6 7.8v-1.9c0-12-6.6-19-17.7-19-12.1 0-19.5 9.9-19.5 26.4 0 16.7 7.4 26.5 19.5 26.5 11.1 0 17.6-7.1 17.6-19l.1-1.9c-1.4 4.7-4.8 7.7-9.6 7.7M332.6 44.7h-.1v3.1c.5-5.7 3.5-9.1 8.3-9.1 4.7 0 7.4 3.1 7.4 8.5v30.3H365v-31c0-13.1-6.3-20.8-17-20.8-9.7 0-15.3 7-15.3 19z" fill="#FFF" style="user-select: auto;"></path><path d="M332.4 44.7c0-11.8-6.1-19-16.4-19-10 0-16 7-16 19h-.2v5c0-6.9 3.1-11 8.4-11 4.8 0 7.6 3.1 7.6 8.5v30.3h16.6V49.7l.1-1.9v-3.1zM299.8 26.7h-16.6v50.8h16.6zM238.9 49c.7-7 4.3-11 9.8-11 5.4 0 8.7 4 9.5 11H239zm35.5 3c0-16.6-9.6-26.3-25.7-26.3-16.4 0-26 9.7-26 26.3 0 16.7 9.6 26.5 26 26.5 14.1 0 23.8-7.2 25.7-19.4h-16c-1.2 4.3-4.8 7-9.7 7-6 0-9.5-4.6-10-12.3h35.7V52zM218.2 26.7h-17.7l-9.1 50.8H207z" fill="#FFF" style="user-select: auto;"></path><path fill="#FFF" d="M183.2 26.7h-17.7l11.2 50.8h15.7zM141 77.5h16.6V26.7h-16.7z" style="user-select: auto;"></path><path d="M121 52c0-8.3 3.9-13.3 10.5-13.3 4.8 0 8.2 3.1 9.6 7.8v-1.9c0-12-6.6-19-17.7-19-12.2 0-19.5 9.9-19.5 26.4 0 16.7 7.3 26.5 19.5 26.5 11.1 0 17.6-7.1 17.6-19l.1-1.9c-1.4 4.7-4.8 7.7-9.6 7.7-6.6 0-10.5-4.9-10.5-13.3zM101 3.3H83.7L73.4 77.5h15.7z" fill="#FFF" style="user-select: auto;"></path><path fill="#FFF" d="M64.4 3.3H50l9.2 74.2h15.2z" style="user-select: auto;"></path><path fill="#FFF" d="M37.8 3.3l-10 74.2h14L51 3.3z" style="user-select: auto;"></path><path fill="#FFF" d="M18.5 3.3H.2L12 77.5h16.8z" style="user-select: auto;"></path></g></svg>